<svg xmlns="http://www.w3.org/2000/svg" viewBox="0 0 800 600" width="800" height="600" role="img" aria-label="Profile cutting">
  <defs>
    <pattern id="g" width="40" height="40" patternUnits="userSpaceOnUse">
      <path d="M40 0H0v40" fill="none" stroke="#ffffff" stroke-opacity=".055" stroke-width="1"/>
    </pattern>
    <linearGradient id="bg" x1="0" y1="0" x2="1" y2="1">
      <stop offset="0" stop-color="#0E3057"/><stop offset="1" stop-color="#0A2540"/>
    </linearGradient>
  </defs>
  <rect width="800" height="600" fill="url(#bg)"/>
  <rect width="800" height="600" fill="url(#g)"/>
  <g fill="none" stroke="#F2B705" stroke-width="2" stroke-opacity=".85">
    <path d="M28 52V28h24"/><path d="M772 548v24h-24"/>
  </g>
  <g fill="none" stroke="#8FB4D9" stroke-width="1" stroke-opacity=".35">
    <path d="M748 28h24v24"/><path d="M52 572H28v-24"/>
  </g>
  <g stroke-linecap="round" stroke-linejoin="round">
    <path d="M90 440h620v46H90z" fill="none" stroke="#EAF2FA" stroke-width="3"/>
    <path d="M90 440h620" fill="none" stroke="#F2B705" stroke-width="3"/>
    <path d="M90 250h620" fill="none" stroke="#8FB4D9" stroke-width="2.2"/>
    <path d="M90 220h620v30H90z" fill="none" stroke="#EAF2FA" stroke-width="2.2"/>
    <path d="M330 250v60h70v-60z" fill="none" stroke="#EAF2FA" stroke-width="2.8"/>
    <path d="M365 310v130" fill="none" stroke="#F2B705" stroke-width="3.4"/>
    <path d="M150 440h500" fill="none" stroke="#8FB4D9" stroke-width="1.8"/>
    <path d="M190 440v-70h70v70" fill="none" stroke="#EAF2FA" stroke-width="2.2"/>
    <path d="M300 440v-46h60v46" fill="none" stroke="#EAF2FA" stroke-width="2.2"/>
    <circle cx="470" cy="405" r="34" fill="none" stroke="#EAF2FA" stroke-width="2.2"/>
    <circle cx="470" cy="405" r="14" fill="none" stroke="#8FB4D9" stroke-width="2"/>
    <path d="M540 440v-56h80v56" fill="none" stroke="#EAF2FA" stroke-width="2.2"/>
    <path d="M150 370h500" fill="none" stroke="#8FB4D9" stroke-width="1.4" stroke-opacity=".55" stroke-dasharray="7 6"/>
    <path d="M90 220V180h620v40" fill="none" stroke="#EAF2FA" stroke-width="2"/>
    <path d="M190 470L620 470" fill="none" stroke="#8FB4D9" stroke-width="1.2" stroke-opacity=".5"/>
    <path d="M190 464v12" fill="none" stroke="#8FB4D9" stroke-width="1.2" stroke-opacity=".5"/>
    <path d="M620 464v12" fill="none" stroke="#8FB4D9" stroke-width="1.2" stroke-opacity=".5"/>
  </g>
  <text x="28" y="584" font-family="'Barlow Condensed',Arial,sans-serif" font-size="17" letter-spacing="3"
        fill="#8FB4D9" fill-opacity=".8">PROFILE CUTTING</text>
</svg>
