<svg xmlns="http://www.w3.org/2000/svg" viewBox="0 0 800 600" width="800" height="600" role="img" aria-label="Tool store almirah">
  <defs>
    <pattern id="g" width="40" height="40" patternUnits="userSpaceOnUse">
      <path d="M40 0H0v40" fill="none" stroke="#ffffff" stroke-opacity=".055" stroke-width="1"/>
    </pattern>
    <linearGradient id="bg" x1="0" y1="0" x2="1" y2="1">
      <stop offset="0" stop-color="#0E3057"/><stop offset="1" stop-color="#0A2540"/>
    </linearGradient>
  </defs>
  <rect width="800" height="600" fill="url(#bg)"/>
  <rect width="800" height="600" fill="url(#g)"/>
  <g fill="none" stroke="#F2B705" stroke-width="2" stroke-opacity=".85">
    <path d="M28 52V28h24"/><path d="M772 548v24h-24"/>
  </g>
  <g fill="none" stroke="#8FB4D9" stroke-width="1" stroke-opacity=".35">
    <path d="M748 28h24v24"/><path d="M52 572H28v-24"/>
  </g>
  <g stroke-linecap="round" stroke-linejoin="round">
    <path d="M210 130h380v420H210z" fill="none" stroke="#EAF2FA" stroke-width="3"/>
    <path d="M210 130h380" fill="none" stroke="#F2B705" stroke-width="3"/>
    <path d="M210 270h380M210 410h380" fill="none" stroke="#EAF2FA" stroke-width="2.6"/>
    <path d="M400 130v140M400 270v140M400 410v140" fill="none" stroke="#EAF2FA" stroke-width="2.2"/>
    <path d="M370 195h60M370 335h60M370 475h60" fill="none" stroke="#F2B705" stroke-width="3.6"/>
    <path d="M250 195h110M440 195h110" fill="none" stroke="#8FB4D9" stroke-width="1.4" stroke-opacity=".55" stroke-dasharray="7 6"/>
    <path d="M240 550v26M560 550v26" fill="none" stroke="#EAF2FA" stroke-width="2.6"/>
  </g>
  <text x="28" y="584" font-family="'Barlow Condensed',Arial,sans-serif" font-size="17" letter-spacing="3"
        fill="#8FB4D9" fill-opacity=".8">TOOL STORE ALMIRAH</text>
</svg>
